<svg width="119" height="123" viewBox="0 0 119 123" fill="none" xmlns="http://www.w3.org/2000/svg">
<path d="M117.172 58.9404H108.184C107.349 58.9404 106.672 59.6174 106.672 60.4524V75.6885C106.672 76.5235 107.349 77.2005 108.184 77.2005H117.172C118.007 77.2005 118.684 76.5235 118.684 75.6885V60.4524C118.684 59.6174 118.007 58.9404 117.172 58.9404Z" fill="#E5D34E"/>
<path d="M10.5 58.9404H1.512C0.676947 58.9404 0 59.6174 0 60.4524V75.6885C0 76.5235 0.676947 77.2005 1.512 77.2005H10.5C11.3351 77.2005 12.012 76.5235 12.012 75.6885V60.4524C12.012 59.6174 11.3351 58.9404 10.5 58.9404Z" fill="#E5D34E"/>
<g style="mix-blend-mode:darken">
<path d="M8.90039 70.8125L10.3884 77.2005L10.4404 72.1805L8.90039 70.8125Z" fill="#70601B"/>
</g>
<path d="M106.673 6.96401V83.7441C106.673 85.4441 105.725 88.2281 104.165 89.1401L62.2288 115.02C60.4688 116.048 58.2208 116.048 56.4568 115.02L14.5207 89.1401C12.9607 88.2321 12.0127 85.4481 12.0127 83.7441V6.96401C12.0127 4.224 14.4287 2 17.4047 2H101.277C104.257 2 106.669 4.224 106.669 6.96401H106.673Z" fill="white" stroke="#303E82" stroke-width="3.22801" stroke-miterlimit="10"/>
<g style="mix-blend-mode:darken">
<path d="M110.024 70.7842L108.288 77.1722L108.236 72.1522L110.024 70.7842Z" fill="#70601B"/>
</g>
<path d="M104.661 72.1526L13.6328 74.4286V71.1406L104.661 72.1526Z" fill="#E5E5E5"/>
<g style="mix-blend-mode:darken">
<path d="M109.8 58.9404L115.32 77.2005H108.356L109.08 58.9404H109.8Z" fill="#C4A835"/>
</g>
<g style="mix-blend-mode:darken">
<path d="M8.8872 58.9404L3.36719 77.2005H10.3272L9.6072 58.9404H8.8872Z" fill="#C4A835"/>
</g>
<path d="M108.525 53.8965H10.4007C9.56562 53.8965 8.88867 54.5734 8.88867 55.4085V70.6445C8.88867 71.4796 9.56562 72.1565 10.4007 72.1565H108.525C109.36 72.1565 110.037 71.4796 110.037 70.6445V55.4085C110.037 54.5734 109.36 53.8965 108.525 53.8965Z" fill="#E5D34E"/>
<path d="M59.3932 122.684C57.4052 122.684 55.4172 122.14 53.6892 121.048L14.7851 96.5397C14.0571 96.0797 13.8371 95.1157 14.2971 94.3877C14.7571 93.6597 15.7211 93.4397 16.4491 93.8997L55.3532 118.408C57.7812 119.936 60.9292 119.952 63.3692 118.444L103.145 93.8917C103.881 93.4397 104.841 93.6677 105.293 94.3997C105.745 95.1317 105.517 96.0957 104.785 96.5477L65.0092 121.1C63.2972 122.156 61.3452 122.684 59.3892 122.684H59.3932Z" fill="#E5D34E"/>
<path d="M34.3667 19.6617H32.8735C32.8462 19.4685 32.7905 19.2969 32.7064 19.1469C32.6223 18.9947 32.5144 18.8651 32.3826 18.7583C32.2508 18.6515 32.0985 18.5697 31.9258 18.5128C31.7553 18.456 31.5701 18.4276 31.3701 18.4276C31.0087 18.4276 30.6939 18.5174 30.4258 18.6969C30.1576 18.8742 29.9496 19.1333 29.8019 19.4742C29.6542 19.8128 29.5803 20.2242 29.5803 20.7083C29.5803 21.206 29.6542 21.6242 29.8019 21.9629C29.9519 22.3015 30.161 22.5572 30.4292 22.7299C30.6973 22.9026 31.0076 22.989 31.3598 22.989C31.5576 22.989 31.7405 22.9629 31.9087 22.9106C32.0792 22.8583 32.2303 22.7822 32.3621 22.6822C32.4939 22.5799 32.603 22.456 32.6894 22.3106C32.778 22.1651 32.8394 21.9992 32.8735 21.8129L34.3667 21.8197C34.328 22.1401 34.2314 22.4492 34.0769 22.7469C33.9246 23.0424 33.7189 23.3072 33.4598 23.5413C33.203 23.7731 32.8962 23.9572 32.5394 24.0935C32.1848 24.2276 31.7837 24.2947 31.336 24.2947C30.7133 24.2947 30.1564 24.1538 29.6655 23.8719C29.1769 23.5901 28.7905 23.1822 28.5064 22.6481C28.2246 22.114 28.0837 21.4674 28.0837 20.7083C28.0837 19.9469 28.2269 19.2992 28.5132 18.7651C28.7996 18.231 29.1882 17.8242 29.6792 17.5447C30.1701 17.2628 30.7223 17.1219 31.336 17.1219C31.7405 17.1219 32.1155 17.1788 32.461 17.2924C32.8087 17.406 33.1167 17.5719 33.3848 17.7901C33.653 18.006 33.8712 18.2708 34.0394 18.5844C34.2098 18.8981 34.3189 19.2572 34.3667 19.6617ZM41.8411 20.7083C41.8411 21.4697 41.6968 22.1174 41.4082 22.6515C41.1218 23.1856 40.7309 23.5935 40.2354 23.8754C39.7422 24.1549 39.1877 24.2947 38.5718 24.2947C37.9513 24.2947 37.3945 24.1538 36.9013 23.8719C36.4081 23.5901 36.0184 23.1822 35.732 22.6481C35.4456 22.114 35.3025 21.4674 35.3025 20.7083C35.3025 19.9469 35.4456 19.2992 35.732 18.7651C36.0184 18.231 36.4081 17.8242 36.9013 17.5447C37.3945 17.2628 37.9513 17.1219 38.5718 17.1219C39.1877 17.1219 39.7422 17.2628 40.2354 17.5447C40.7309 17.8242 41.1218 18.231 41.4082 18.7651C41.6968 19.2992 41.8411 19.9469 41.8411 20.7083ZM40.3445 20.7083C40.3445 20.2151 40.2707 19.7992 40.1229 19.4606C39.9775 19.1219 39.7718 18.8651 39.5059 18.6901C39.24 18.5151 38.9286 18.4276 38.5718 18.4276C38.215 18.4276 37.9036 18.5151 37.6377 18.6901C37.3718 18.8651 37.165 19.1219 37.0172 19.4606C36.8718 19.7992 36.7991 20.2151 36.7991 20.7083C36.7991 21.2015 36.8718 21.6174 37.0172 21.956C37.165 22.2947 37.3718 22.5515 37.6377 22.7265C37.9036 22.9015 38.215 22.989 38.5718 22.989C38.9286 22.989 39.24 22.9015 39.5059 22.7265C39.7718 22.5515 39.9775 22.2947 40.1229 21.956C40.2707 21.6174 40.3445 21.2015 40.3445 20.7083ZM42.9346 17.2174H44.755L46.6778 21.9083H46.7596L48.6823 17.2174H50.5028V24.1992H49.071V19.6549H49.013L47.2062 24.1651H46.2312L44.4244 19.6378H44.3664V24.1992H42.9346V17.2174ZM51.719 17.2174H53.5394L55.4622 21.9083H55.544L57.4667 17.2174H59.2872V24.1992H57.8553V19.6549H57.7974L55.9906 24.1651H55.0156L53.2087 19.6378H53.1508V24.1992H51.719V17.2174ZM64.8159 17.2174H66.292V21.7515C66.292 22.2606 66.1704 22.706 65.9272 23.0879C65.6863 23.4697 65.3488 23.7674 64.9147 23.981C64.4806 24.1924 63.975 24.2981 63.3977 24.2981C62.8181 24.2981 62.3113 24.1924 61.8772 23.981C61.4431 23.7674 61.1056 23.4697 60.8647 23.0879C60.6238 22.706 60.5034 22.2606 60.5034 21.7515V17.2174H61.9795V21.6254C61.9795 21.8913 62.0375 22.1276 62.1534 22.3344C62.2715 22.5413 62.4375 22.7038 62.6511 22.8219C62.8647 22.9401 63.1136 22.9992 63.3977 22.9992C63.684 22.9992 63.9329 22.9401 64.1443 22.8219C64.3579 22.7038 64.5227 22.5413 64.6386 22.3344C64.7568 22.1276 64.8159 21.8913 64.8159 21.6254V17.2174ZM73.3463 17.2174V24.1992H72.0713L69.0338 19.8049H68.9826V24.1992H67.5065V17.2174H68.8019L71.8156 21.6083H71.877V17.2174H73.3463ZM76.042 17.2174V24.1992H74.5659V17.2174H76.042ZM76.9906 18.4344V17.2174H82.7247V18.4344H80.5872V24.1992H79.1281V18.4344H76.9906ZM83.2599 17.2174H84.9133L86.5054 20.2242H86.5736L88.1656 17.2174H89.819L87.2724 21.731V24.1992H85.8065V21.731L83.2599 17.2174Z" fill="#303E82"/>
<path d="M45.7064 41.3994V34.4176H50.3292V35.6346H47.1826V37.2983H50.0223V38.5153H47.1826V41.3994H45.7064ZM52.7982 34.4176V41.3994H51.3221V34.4176H52.7982ZM54.0127 41.3994V34.4176H56.7672C57.2945 34.4176 57.7445 34.5119 58.1172 34.7005C58.4922 34.8869 58.7775 35.1517 58.9729 35.4949C59.1707 35.8358 59.2695 36.2369 59.2695 36.6983C59.2695 37.1619 59.1695 37.5608 58.9695 37.8949C58.7695 38.2267 58.4797 38.4812 58.1002 38.6585C57.7229 38.8358 57.2661 38.9244 56.7297 38.9244H54.8854V37.738H56.4911C56.7729 37.738 57.007 37.6994 57.1934 37.6221C57.3797 37.5449 57.5184 37.429 57.6093 37.2744C57.7025 37.1199 57.7491 36.9278 57.7491 36.6983C57.7491 36.4665 57.7025 36.271 57.6093 36.1119C57.5184 35.9528 57.3786 35.8324 57.19 35.7505C57.0036 35.6665 56.7684 35.6244 56.4843 35.6244H55.4888V41.3994H54.0127ZM57.7832 38.2221L59.5184 41.3994H57.8888L56.1911 38.2221H57.7832ZM64.1002 36.4255C64.0729 36.1505 63.9559 35.9369 63.7491 35.7846C63.5423 35.6324 63.2616 35.5562 62.907 35.5562C62.6661 35.5562 62.4627 35.5903 62.2968 35.6585C62.1309 35.7244 62.0036 35.8165 61.915 35.9346C61.8286 36.0528 61.7854 36.1869 61.7854 36.3369C61.7809 36.4619 61.807 36.571 61.8638 36.6642C61.9229 36.7574 62.0036 36.838 62.1059 36.9062C62.2082 36.9721 62.3263 37.0301 62.4604 37.0801C62.5945 37.1278 62.7377 37.1687 62.89 37.2028L63.5173 37.3528C63.8218 37.421 64.1013 37.5119 64.3559 37.6255C64.6104 37.7392 64.8309 37.879 65.0173 38.0449C65.2036 38.2108 65.3479 38.4062 65.4502 38.6312C65.5548 38.8562 65.6082 39.1142 65.6104 39.4051C65.6082 39.8324 65.4991 40.2028 65.2832 40.5165C65.0695 40.8278 64.7604 41.0699 64.3559 41.2426C63.9536 41.4131 63.4684 41.4983 62.9002 41.4983C62.3366 41.4983 61.8457 41.4119 61.4275 41.2392C61.0116 41.0665 60.6866 40.8108 60.4525 40.4721C60.2207 40.1312 60.0991 39.7096 60.0877 39.2074H61.5161C61.532 39.4415 61.5991 39.6369 61.7172 39.7937C61.8377 39.9483 61.9979 40.0653 62.1979 40.1449C62.4002 40.2221 62.6286 40.2608 62.8832 40.2608C63.1332 40.2608 63.3502 40.2244 63.5343 40.1517C63.7207 40.079 63.865 39.9778 63.9673 39.8483C64.0695 39.7187 64.1207 39.5699 64.1207 39.4017C64.1207 39.2449 64.0741 39.113 63.9809 39.0062C63.89 38.8994 63.7559 38.8085 63.5786 38.7335C63.4036 38.6585 63.1888 38.5903 62.9343 38.529L62.1741 38.338C61.5854 38.1949 61.1207 37.971 60.7797 37.6665C60.4388 37.3619 60.2695 36.9517 60.2718 36.4358C60.2695 36.013 60.382 35.6437 60.6093 35.3278C60.8388 35.0119 61.1536 34.7653 61.5536 34.588C61.9536 34.4108 62.4082 34.3221 62.9173 34.3221C63.4354 34.3221 63.8877 34.4108 64.2741 34.588C64.6627 34.7653 64.965 35.0119 65.1809 35.3278C65.3968 35.6437 65.5082 36.0096 65.515 36.4255H64.1002ZM66.3374 35.6346V34.4176H72.0715V35.6346H69.934V41.3994H68.4749V35.6346H66.3374Z" fill="#303E82"/>
<path d="M19.3377 63.4626C19.3377 62.3324 19.5822 61.3273 20.0712 60.4471C20.5602 59.556 21.2394 58.866 22.1087 58.377C22.9889 57.8771 23.9832 57.6272 25.0916 57.6272C26.45 57.6272 27.6127 57.9858 28.5798 58.703C29.547 59.4202 30.1935 60.3982 30.5195 61.637H27.4551C27.2269 61.1588 26.9009 60.7948 26.4771 60.5449C26.0642 60.2949 25.5915 60.17 25.059 60.17C24.2005 60.17 23.5051 60.4688 22.9726 61.0665C22.4401 61.6641 22.1739 62.4628 22.1739 63.4626C22.1739 64.4623 22.4401 65.261 22.9726 65.8587C23.5051 66.4564 24.2005 66.7552 25.059 66.7552C25.5915 66.7552 26.0642 66.6302 26.4771 66.3803C26.9009 66.1304 27.2269 65.7663 27.4551 65.2882H30.5195C30.1935 66.527 29.547 67.505 28.5798 68.2222C27.6127 68.9285 26.45 69.2817 25.0916 69.2817C23.9832 69.2817 22.9889 69.0372 22.1087 68.5482C21.2394 68.0483 20.5602 67.3583 20.0712 66.4781C19.5822 65.5979 19.3377 64.5927 19.3377 63.4626ZM35.0137 59.9907V62.3053H38.7465V64.4569H35.0137V66.9671H39.2355V69.2002H32.2264V57.7576H39.2355V59.9907H35.0137ZM46.8804 69.2002L44.5006 64.8807H43.8323V69.2002H41.045V57.7576H45.7231C46.6251 57.7576 47.3912 57.9151 48.0214 58.2303C48.6626 58.5454 49.1407 58.9801 49.4558 59.5343C49.771 60.0776 49.9285 60.6861 49.9285 61.3599C49.9285 62.1205 49.7112 62.7997 49.2765 63.3974C48.8527 63.9951 48.2225 64.4189 47.3857 64.6688L50.0263 69.2002H46.8804ZM43.8323 62.9084H45.5601C46.0709 62.9084 46.4512 62.7834 46.7011 62.5335C46.9619 62.2835 47.0923 61.9304 47.0923 61.474C47.0923 61.0393 46.9619 60.697 46.7011 60.4471C46.4512 60.1971 46.0709 60.0722 45.5601 60.0722H43.8323V62.9084ZM59.9097 57.7576V59.9907H56.8779V69.2002H54.0906V59.9907H51.0588V57.7576H59.9097ZM64.0959 57.7576V69.2002H61.3086V57.7576H64.0959ZM73.565 57.7576V59.9907H68.9032V62.4031H72.3914V64.571H68.9032V69.2002H66.1159V57.7576H73.565ZM77.8172 57.7576V69.2002H75.0299V57.7576H77.8172ZM82.6245 59.9907V62.3053H86.3572V64.4569H82.6245V66.9671H86.8462V69.2002H79.8372V57.7576H86.8462V59.9907H82.6245ZM92.9427 57.7576C94.1489 57.7576 95.2029 57.9966 96.1049 58.4748C97.0068 58.9529 97.7023 59.6266 98.1913 60.496C98.6911 61.3544 98.9411 62.3488 98.9411 63.4789C98.9411 64.5982 98.6911 65.5925 98.1913 66.4618C97.7023 67.3311 97.0014 68.0049 96.0886 68.483C95.1866 68.9611 94.138 69.2002 92.9427 69.2002H88.6557V57.7576H92.9427ZM92.7634 66.7878C93.8174 66.7878 94.6379 66.4998 95.2247 65.9239C95.8115 65.348 96.1049 64.533 96.1049 63.4789C96.1049 62.4248 95.8115 61.6044 95.2247 61.0176C94.6379 60.4308 93.8174 60.1374 92.7634 60.1374H91.443V66.7878H92.7634Z" fill="white"/>
<path d="M52.453 94.656C52.3369 94.4421 52.1688 94.2801 51.9488 94.1701C51.7349 94.054 51.4812 93.9959 51.1878 93.9959C50.6805 93.9959 50.2741 94.164 49.9685 94.5001C49.6629 94.8302 49.5101 95.2733 49.5101 95.8295C49.5101 96.4224 49.669 96.8869 49.9868 97.223C50.3108 97.5531 50.7539 97.7181 51.3162 97.7181C51.7012 97.7181 52.0252 97.6203 52.288 97.4247C52.5569 97.2291 52.7525 96.948 52.8747 96.5813H50.8853V95.4261H54.2958V96.8838C54.1797 97.275 53.981 97.6387 53.6999 97.9748C53.4248 98.311 53.0734 98.583 52.6455 98.7908C52.2177 98.9986 51.7349 99.1025 51.197 99.1025C50.5613 99.1025 49.9929 98.965 49.4917 98.6899C48.9967 98.4088 48.6086 98.0207 48.3274 97.5256C48.0524 97.0305 47.9148 96.4651 47.9148 95.8295C47.9148 95.1938 48.0524 94.6285 48.3274 94.1334C48.6086 93.6322 48.9967 93.2441 49.4917 92.9691C49.9868 92.6879 50.5522 92.5473 51.1878 92.5473C51.9579 92.5473 52.6058 92.7338 53.1315 93.1066C53.6632 93.4794 54.0146 93.9959 54.1858 94.656H52.453ZM58.208 99.1208C57.6029 99.1208 57.0467 98.9802 56.5394 98.6991C56.0382 98.4179 55.6379 98.0268 55.3384 97.5256C55.045 97.0183 54.8983 96.4499 54.8983 95.8203C54.8983 95.1908 55.045 94.6254 55.3384 94.1242C55.6379 93.6231 56.0382 93.2319 56.5394 92.9507C57.0467 92.6696 57.6029 92.529 58.208 92.529C58.813 92.529 59.3662 92.6696 59.8674 92.9507C60.3747 93.2319 60.7719 93.6231 61.0592 94.1242C61.3526 94.6254 61.4993 95.1908 61.4993 95.8203C61.4993 96.4499 61.3526 97.0183 61.0592 97.5256C60.7658 98.0268 60.3685 98.4179 59.8674 98.6991C59.3662 98.9802 58.813 99.1208 58.208 99.1208ZM58.208 97.6906C58.7214 97.6906 59.1309 97.5195 59.4365 97.1772C59.7482 96.8349 59.904 96.3826 59.904 95.8203C59.904 95.2519 59.7482 94.7996 59.4365 94.4635C59.1309 94.1212 58.7214 93.9501 58.208 93.9501C57.6884 93.9501 57.2728 94.1181 56.9611 94.4543C56.6555 94.7905 56.5027 95.2458 56.5027 95.8203C56.5027 96.3887 56.6555 96.8441 56.9611 97.1864C57.2728 97.5225 57.6884 97.6906 58.208 97.6906ZM63.9392 97.8465H65.9928V99.0566H62.3714V92.6207H63.9392V97.8465ZM69.1518 92.6207C69.8302 92.6207 70.4231 92.7552 70.9304 93.0241C71.4377 93.293 71.8288 93.672 72.1039 94.1609C72.385 94.6438 72.5256 95.203 72.5256 95.8387C72.5256 96.4682 72.385 97.0275 72.1039 97.5164C71.8288 98.0054 71.4346 98.3843 70.9212 98.6532C70.4139 98.9222 69.8241 99.0566 69.1518 99.0566H66.7406V92.6207H69.1518ZM69.0509 97.6998C69.6438 97.6998 70.1052 97.5378 70.4353 97.2139C70.7653 96.8899 70.9304 96.4315 70.9304 95.8387C70.9304 95.2458 70.7653 94.7843 70.4353 94.4543C70.1052 94.1242 69.6438 93.9592 69.0509 93.9592H68.3083V97.6998H69.0509Z" fill="#E5D34E"/>
<path d="M66.7687 81.4557C66.7607 81.5597 66.7607 81.6557 66.7567 81.7517C66.7567 81.8557 66.7487 81.9597 66.7407 82.0637C66.7287 82.2277 66.7327 82.3957 66.7407 82.5637C66.7407 82.6517 66.7407 82.7397 66.7407 82.8317V87.5797C66.7407 87.7877 66.7327 88.0317 66.6607 88.2717C66.5767 88.5397 66.3927 88.7437 66.1287 88.8637C65.8927 88.9717 65.6487 88.9677 65.4127 88.8557C65.1927 88.7437 65.0407 88.6077 64.9487 88.4317C64.8727 88.2797 64.8207 88.1117 64.7927 87.9197C64.7687 87.7637 64.7687 87.6077 64.7687 87.4597V82.2037C64.7687 81.7157 64.7687 81.2237 64.7687 80.7317C64.7687 80.4797 64.7407 80.2277 64.6847 79.9917C64.6527 79.8357 64.6087 79.6597 64.5287 79.4957C64.4047 79.2357 64.2847 79.0037 64.1167 78.8197C63.8367 78.5157 63.5247 78.2677 63.1887 78.0877C63.0447 78.0117 62.8767 77.9557 62.6607 77.9077L62.6127 77.8997C62.3727 77.8477 62.1527 77.8037 61.9287 77.8117C61.6847 77.8117 61.4407 77.8597 61.2207 77.9397C61.0967 77.9837 60.9687 78.0317 60.8487 78.0917C60.6127 78.2117 60.3967 78.3717 60.1887 78.5797C59.9887 78.7757 59.7847 78.9877 59.6567 79.2397C59.5887 79.3717 59.5286 79.4837 59.4926 79.5997C59.4806 79.6437 59.4607 79.6917 59.4407 79.7437C59.4247 79.7837 59.4087 79.8237 59.3967 79.8677C59.3847 79.9157 59.3727 79.9637 59.3567 80.0117C59.3327 80.0957 59.3126 80.1757 59.3046 80.2557C59.2806 80.5357 59.2726 80.8237 59.2686 81.0997L59.2567 81.2957C59.2487 81.3237 59.2487 81.3597 59.2567 81.4037V81.4437V81.6477C59.2567 82.0677 59.2647 82.4837 59.2647 82.8997V83.8797C59.2647 84.5317 59.2647 85.1837 59.2647 85.8397C59.2647 85.9037 59.2647 85.9597 59.2527 86.0237C59.2527 86.0837 59.2447 86.1437 59.2527 86.2037C59.2607 86.4597 59.3127 86.6517 59.4207 86.8037C59.4887 86.8997 59.5807 86.9597 59.7087 86.9957C59.9767 87.0677 60.2327 86.8677 60.3087 86.6917C60.3407 86.6117 60.3607 86.5197 60.3767 86.4237L60.3927 86.3437C60.4007 86.3077 60.4007 86.2717 60.4007 86.2317C60.4007 86.1637 60.4007 86.0997 60.4167 86.0317C60.4167 86.0077 60.4246 85.9957 60.4167 85.9717V85.8677C60.4246 85.5877 60.4246 85.3037 60.4167 84.9277V82.6437C60.4167 82.6437 60.4167 82.6197 60.4167 82.6077V80.7317C60.4167 80.6797 60.4167 80.6317 60.4167 80.5797V80.2477L60.3807 80.1917L60.4127 80.1237L60.4207 80.0077C60.4407 79.7717 60.5327 79.5557 60.6887 79.3717C60.8127 79.2157 60.9927 79.1117 61.2007 79.0757C61.6007 79.0037 61.9567 79.1477 62.2007 79.4957C62.2767 79.6077 62.3247 79.7517 62.3447 79.9237C62.3687 80.1517 62.3807 80.3957 62.3807 80.7157V86.1077C62.3807 86.2437 62.3687 86.3757 62.3567 86.5077C62.3487 86.5717 62.3407 86.6317 62.3367 86.6957C62.3207 86.9157 62.2567 87.1117 62.1927 87.2957L62.1647 87.3877C62.1087 87.5557 62.0287 87.7237 61.9247 87.8877C61.7647 88.1317 61.5607 88.4117 61.2607 88.6117C60.9647 88.8077 60.6807 88.9357 60.3967 88.9997C60.2167 89.0437 60.0367 89.0677 59.8527 89.0677C59.5527 89.0677 59.2447 89.0037 58.9287 88.8837C58.6127 88.7637 58.3246 88.5717 58.0686 88.3117C57.8166 88.0677 57.6286 87.7757 57.5166 87.4597C57.4526 87.2877 57.4046 87.1277 57.3646 86.9677C57.3366 86.8397 57.3246 86.7197 57.3166 86.5957L57.3086 86.4517V86.0957C57.3086 85.9357 57.3086 85.7677 57.3086 85.6077C57.3086 85.4997 57.2966 85.3917 57.2886 85.2837C57.2766 85.1517 57.2646 85.0237 57.2646 84.8917V81.5557C57.2646 81.4437 57.2846 81.3357 57.2926 81.2237L57.3126 81.0877V80.7077L57.3206 80.6597C57.3206 80.4797 57.3406 80.2757 57.3646 80.0717V80.0237C57.3886 79.8317 57.4206 79.6037 57.4847 79.3757L57.5086 79.2797C57.5686 79.0797 57.6246 78.8717 57.7166 78.6717C57.8406 78.4077 57.9886 78.1077 58.1806 77.8317C58.3486 77.5917 58.5566 77.3197 58.8126 77.0797C59.0206 76.8877 59.2527 76.6877 59.5207 76.5197C59.7207 76.3957 59.9327 76.2797 60.1367 76.1837C60.4167 76.0477 60.7167 75.9437 61.0607 75.8597C61.4407 75.7677 61.8207 75.7277 62.1847 75.7437C62.6607 75.7677 63.1207 75.8597 63.5407 76.0277C63.5807 76.0437 63.6167 76.0597 63.6527 76.0797C63.6807 76.0957 63.7207 76.1117 63.7367 76.1157C63.9367 76.1717 64.1087 76.2717 64.2687 76.3637L64.3527 76.4117C64.5527 76.5317 64.7887 76.6797 64.9847 76.8597L65.0127 76.8877C65.3087 77.1637 65.6167 77.4517 65.8527 77.8157C65.9807 78.0197 66.1127 78.2357 66.2127 78.4797C66.2247 78.5037 66.2367 78.5157 66.2447 78.5357C66.2647 78.5797 66.2887 78.6197 66.3087 78.6637C66.3727 78.8237 66.4247 78.9957 66.4807 79.1637L66.5087 79.2517C66.5887 79.4997 66.6327 79.7597 66.6727 80.0037C66.6967 80.1237 66.7047 80.2477 66.7127 80.3637L66.7287 80.5637C66.7487 80.8517 66.7687 81.1557 66.7487 81.4597L66.7687 81.4557Z" fill="#303E82"/>
<path d="M52.9362 85.9885C52.9362 85.4245 52.9362 84.9605 52.9362 84.4925C52.9362 84.1165 52.9722 83.7405 52.9522 83.3645C52.9402 83.1285 52.9322 82.8925 52.9402 82.6605C52.9602 82.1965 52.9322 81.7325 52.9402 81.2685C52.9402 81.0685 52.9402 80.8685 52.9562 80.6685C52.9842 80.3525 53.0042 80.0325 53.0642 79.7205C53.2402 78.8485 53.6322 78.0925 54.2282 77.4365C54.5882 77.0365 55.0082 76.7085 55.4842 76.4605C55.7082 76.3445 55.9482 76.2605 56.1922 76.1845C56.4002 76.1165 56.6042 76.1045 56.8082 76.1605C57.0442 76.2285 57.1682 76.4125 57.2402 76.6365C57.3402 76.9605 57.2802 77.2485 57.0282 77.4805C56.9162 77.5845 56.7642 77.6285 56.6202 77.6685C56.4242 77.7205 56.2402 77.8045 56.0682 77.9045C55.9362 77.9805 55.8162 78.0805 55.7002 78.1765C55.5922 78.2685 55.4762 78.3525 55.3802 78.4605C55.2802 78.5685 55.1762 78.6725 55.0922 78.7885C54.8882 79.0605 54.7482 79.3685 54.6362 79.6925C54.5682 79.8885 54.5282 80.0925 54.4842 80.2965C54.4682 80.3685 54.4602 80.4445 54.4602 80.5205C54.4602 81.1165 54.4482 81.7085 54.4602 82.3045C54.4842 83.1445 54.4762 83.9845 54.4682 84.8285C54.4562 85.8325 54.4682 86.8365 54.4522 87.8445C54.4522 88.0645 54.3842 88.2805 54.2242 88.4485C54.0802 88.5965 53.9042 88.7125 53.6842 88.7005C53.4722 88.6925 53.2922 88.5885 53.1522 88.4245C53.0282 88.2845 52.9882 88.1125 52.9682 87.9285C52.9522 87.7765 52.9642 87.6245 52.9522 87.4765C52.9162 86.9485 52.9522 86.4205 52.9362 85.9925V85.9885Z" fill="#E5D34E"/>
</svg>
