<svg width="296" height="296" viewBox="0 0 296 296" fill="none" xmlns="http://www.w3.org/2000/svg">
<path d="M130.401 240.022C128.326 250.871 117.749 258.146 107.43 254.204C91.984 248.304 77.9323 239.074 66.3195 227.079C50.0439 210.268 39.3519 188.844 35.7026 165.731C32.0532 142.618 35.6244 118.943 45.9286 97.9346C53.2808 82.9452 63.8051 69.8349 76.6822 59.4621C85.2842 52.533 97.5884 56.1956 102.905 65.8776L107.947 75.0599C113.264 84.7418 109.391 96.7427 101.844 104.808C97.5963 109.347 94.0164 114.515 91.2464 120.163C85.517 131.843 83.5314 145.008 85.5605 157.859C87.5896 170.71 93.5346 182.622 102.584 191.97C106.959 196.489 111.957 200.302 117.397 203.312C127.062 208.66 134.444 218.884 132.369 229.733L130.401 240.022Z" fill="#2E1065"/>
<path d="M241.182 138.206C252.167 137.052 262.193 145.069 261.407 156.087C260.696 166.049 258.674 175.902 255.371 185.388C249.867 201.192 240.942 215.587 229.233 227.544C217.524 239.501 203.32 248.725 187.634 254.559C178.219 258.06 168.41 260.288 158.466 261.207C147.467 262.223 139.241 252.367 140.166 241.36L141.042 230.922C141.966 219.915 151.829 212.057 162.577 209.511C165.103 208.913 167.595 208.158 170.04 207.249C178.761 204.005 186.659 198.876 193.17 192.228C199.68 185.58 204.643 177.576 207.703 168.788C208.561 166.325 209.263 163.818 209.808 161.28C212.129 150.481 219.778 140.456 230.763 139.301L241.182 138.206Z" fill="#6747A1"/>
<path d="M110.799 62.0124C106.414 51.8748 111.068 39.9105 121.816 37.3666C131.535 35.0666 141.542 34.0504 151.582 34.3669C168.309 34.8941 184.713 39.1077 199.624 46.7067C214.534 54.3058 227.583 65.1029 237.839 78.3273C243.995 86.2648 249.053 94.9593 252.903 104.174C257.161 114.366 250.215 125.162 239.435 127.571L229.212 129.855C218.432 132.264 207.985 125.201 202.342 115.705C201.016 113.474 199.551 111.321 197.953 109.26C192.25 101.907 184.994 95.9039 176.704 91.6786C168.413 87.4534 159.292 85.1105 149.992 84.8174C147.385 84.7352 144.782 84.8146 142.197 85.0529C131.198 86.0668 119.345 81.7645 114.959 71.6268L110.799 62.0124Z" fill="#A6EBE3"/>
</svg>
